NotoSansOldPermic-Regular.ufo
<glyph name="uni0306" format="2">
  <unicode hex="0306"/>
  <outline>
    <contour>
      <point x="179" y="758" type="curve"/>
      <point x="97" y="758" type="line"/>
      <point x="91" y="689"/>
      <point x="57" y="667"/>
      <point x="-1" y="667" type="curve" smooth="yes"/>
      <point x="-66" y="667"/>
      <point x="-92" y="686"/>
      <point x="-98" y="758" type="curve"/>
      <point x="-179" y="758" type="line"/>
      <point x="-172" y="656"/>
      <point x="-129" y="606"/>
      <point x="-2" y="606" type="curve" smooth="yes"/>
      <point x="120" y="606"/>
      <point x="170" y="658"/>
    </contour>
  </outline>
</glyph>
<glyph name="uni0483" format="2">
  <unicode hex="0483"/>
  <outline>
    <contour>
      <point x="-83" y="654" type="curve"/>
      <point x="121" y="654" type="line" smooth="yes"/>
      <point x="153" y="654"/>
      <point x="171" y="673"/>
      <point x="171" y="707" type="curve" smooth="yes"/>
      <point x="171" y="742"/>
      <point x="151" y="761"/>
      <point x="126" y="761" type="curve" smooth="yes"/>
      <point x="99" y="761"/>
      <point x="84" y="745"/>
      <point x="81" y="715" type="curve"/>
      <point x="-124" y="715" type="line" smooth="yes"/>
      <point x="-154" y="715"/>
      <point x="-171" y="694"/>
      <point x="-171" y="659" type="curve" smooth="yes"/>
      <point x="-171" y="626"/>
      <point x="-153" y="608"/>
      <point x="-127" y="608" type="curve" smooth="yes"/>
      <point x="-100" y="608"/>
      <point x="-86" y="626"/>
    </contour>
  </outline>
</glyph>
<glyph name="u10350" format="2">
  <advance width="539"/>
  <unicode hex="10350"/>
  <outline>
    <contour>
      <point x="108" y="-14" type="line"/>
      <point x="235" y="73"/>
      <point x="376" y="138"/>
      <point x="527" y="185" type="curve"/>
      <point x="488" y="255" type="line"/>
      <point x="374" y="221"/>
      <point x="272" y="173"/>
      <point x="186" y="111" type="curve"/>
      <point x="502" y="570" type="line"/>
      <point x="502" y="638" type="line"/>
      <point x="84" y="638" type="line"/>
      <point x="84" y="558" type="line"/>
      <point x="390" y="558" type="line"/>
      <point x="34" y="38" type="line"/>
    </contour>
    <contour>
      <point x="33" y="458" type="line"/>
      <point x="115" y="458" type="line"/>
      <point x="115" y="638" type="line"/>
      <point x="33" y="638" type="line"/>
    </contour>
  </outline>
</glyph>
<glyph name="u10351" format="2">
  <advance width="768"/>
  <unicode hex="10351"/>
  <outline>
    <contour>
      <point x="228" y="-15" type="curve" smooth="yes"/>
      <point x="307" y="-15"/>
      <point x="356" y="27"/>
      <point x="384" y="96" type="curve"/>
      <point x="413" y="27"/>
      <point x="460" y="-15"/>
      <point x="536" y="-15" type="curve" smooth="yes"/>
      <point x="661" y="-15"/>
      <point x="726" y="57"/>
      <point x="726" y="188" type="curve" smooth="yes"/>
      <point x="726" y="312"/>
      <point x="656" y="419"/>
      <point x="483" y="419" type="curve" smooth="yes"/>
      <point x="429" y="419" type="line"/>
      <point x="429" y="714" type="line"/>
      <point x="340" y="714" type="line"/>
      <point x="340" y="419" type="line"/>
      <point x="286" y="419" type="line" smooth="yes"/>
      <point x="112" y="419"/>
      <point x="42" y="312"/>
      <point x="42" y="188" type="curve" smooth="yes"/>
      <point x="42" y="56"/>
      <point x="107" y="-15"/>
    </contour>
    <contour>
      <point x="232" y="62" type="curve" smooth="yes"/>
      <point x="167" y="62"/>
      <point x="134" y="106"/>
      <point x="134" y="188" type="curve" smooth="yes"/>
      <point x="134" y="283"/>
      <point x="186" y="340"/>
      <point x="287" y="340" type="curve" smooth="yes"/>
      <point x="340" y="340" type="line"/>
      <point x="340" y="203" type="line" smooth="yes"/>
      <point x="340" y="116"/>
      <point x="311" y="62"/>
    </contour>
    <contour>
      <point x="536" y="62" type="curve" smooth="yes"/>
      <point x="457" y="62"/>
      <point x="429" y="116"/>
      <point x="429" y="203" type="curve" smooth="yes"/>
      <point x="429" y="340" type="line"/>
      <point x="482" y="340" type="line" smooth="yes"/>
      <point x="583" y="340"/>
      <point x="634" y="283"/>
      <point x="634" y="188" type="curve" smooth="yes"/>
      <point x="634" y="105"/>
      <point x="601" y="62"/>
    </contour>
  </outline>
</glyph>
<glyph name="u10352" format="2">
  <advance width="564"/>
  <unicode hex="10352"/>
  <outline>
    <contour>
      <point x="238" y="0" type="line"/>
      <point x="327" y="0" type="line"/>
      <point x="327" y="559" type="line"/>
      <point x="533" y="559" type="line"/>
      <point x="533" y="638" type="line"/>
      <point x="145" y="638" type="line" smooth="yes"/>
      <point x="61" y="638"/>
      <point x="7" y="588"/>
      <point x="7" y="508" type="curve" smooth="yes"/>
      <point x="7" y="448"/>
      <point x="46" y="404"/>
      <point x="102" y="383" type="curve"/>
      <point x="139" y="452" type="line"/>
      <point x="108" y="463"/>
      <point x="87" y="481"/>
      <point x="87" y="510" type="curve" smooth="yes"/>
      <point x="87" y="535"/>
      <point x="102" y="558"/>
      <point x="144" y="558" type="curve" smooth="yes"/>
      <point x="238" y="558" type="line"/>
    </contour>
    <contour>
      <point x="451" y="458" type="line"/>
      <point x="533" y="458" type="line"/>
      <point x="533" y="638" type="line"/>
      <point x="451" y="638" type="line"/>
    </contour>
  </outline>
</glyph>
<glyph name="u10353" format="2">
  <advance width="548"/>
  <unicode hex="10353"/>
  <outline>
    <contour>
      <point x="20" y="0" type="curve"/>
      <point x="113" y="0" type="line"/>
      <point x="132" y="162"/>
      <point x="193" y="323"/>
      <point x="274" y="487" type="curve"/>
      <point x="351" y="331"/>
      <point x="412" y="168"/>
      <point x="434" y="0" type="curve"/>
      <point x="528" y="0" type="line"/>
      <point x="500" y="168"/>
      <point x="448" y="325"/>
      <point x="372" y="477" type="curve" smooth="yes"/>
      <point x="335" y="551"/>
      <point x="319" y="588"/>
      <point x="319" y="628" type="curve" smooth="yes"/>
      <point x="319" y="714" type="line"/>
      <point x="230" y="714" type="line"/>
      <point x="230" y="628" type="line" smooth="yes"/>
      <point x="230" y="589"/>
      <point x="210" y="543"/>
      <point x="177" y="476" type="curve" smooth="yes"/>
      <point x="99" y="318"/>
      <point x="41" y="161"/>
    </contour>
  </outline>
</glyph>
<glyph name="u10358" format="2">
  <advance width="271"/>
  <unicode hex="10358"/>
  <outline>
    <contour>
      <point x="91" y="0" type="line"/>
      <point x="180" y="0" type="line"/>
      <point x="180" y="638" type="line"/>
      <point x="91" y="638" type="line"/>
    </contour>
  </outline>
</glyph>
<glyph name="u1035B" format="2">
  <advance width="581"/>
  <unicode hex="1035B"/>
  <outline>
    <contour>
      <point x="215" y="0" type="line"/>
      <point x="317" y="0" type="line"/>
      <point x="370" y="220"/>
      <point x="413" y="428"/>
      <point x="557" y="448" type="curve"/>
      <point x="557" y="535" type="line"/>
      <point x="341" y="521"/>
      <point x="294" y="243"/>
      <point x="265" y="92" type="curve"/>
      <point x="254" y="143"/>
      <point x="241" y="198"/>
      <point x="222" y="263" type="curve" smooth="yes"/>
      <point x="93" y="714" type="line"/>
      <point x="0" y="714" type="line"/>
    </contour>
  </outline>
</glyph>
<glyph name="u1035C" format="2">
  <advance width="744"/>
  <unicode hex="1035C"/>
  <outline>
    <contour>
      <point x="206" y="0" type="line"/>
      <point x="296" y="0" type="line"/>
      <point x="471" y="559" type="line"/>
      <point x="563" y="559" type="line"/>
      <point x="563" y="0" type="line"/>
      <point x="652" y="0" type="line"/>
      <point x="652" y="638" type="line"/>
      <point x="404" y="638" type="line"/>
      <point x="293" y="258" type="line" smooth="yes"/>
      <point x="276" y="199"/>
      <point x="259" y="147"/>
      <point x="251" y="100" type="curve"/>
      <point x="242" y="147"/>
      <point x="227" y="197"/>
      <point x="209" y="256" type="curve" smooth="yes"/>
      <point x="93" y="638" type="line"/>
      <point x="0" y="638" type="line"/>
    </contour>
  </outline>
</glyph>
<glyph name="u1035D" format="2">
  <advance width="673"/>
  <unicode hex="1035D"/>
  <outline>
    <contour>
      <point x="389" y="0" type="line"/>
      <point x="479" y="0" type="line"/>
      <point x="673" y="638" type="line"/>
      <point x="579" y="638" type="line"/>
      <point x="475" y="266" type="line" smooth="yes"/>
      <point x="458" y="206"/>
      <point x="442" y="147"/>
      <point x="434" y="100" type="curve"/>
      <point x="426" y="147"/>
      <point x="414" y="201"/>
      <point x="396" y="265" type="curve" smooth="yes"/>
      <point x="327" y="513" type="line" smooth="yes"/>
      <point x="304" y="595"/>
      <point x="252" y="648"/>
      <point x="164" y="648" type="curve" smooth="yes"/>
      <point x="75" y="648"/>
      <point x="5" y="579"/>
      <point x="5" y="487" type="curve" smooth="yes"/>
      <point x="5" y="413"/>
      <point x="44" y="361"/>
      <point x="108" y="334" type="curve"/>
      <point x="145" y="403" type="line"/>
      <point x="110" y="417"/>
      <point x="85" y="444"/>
      <point x="85" y="487" type="curve" smooth="yes"/>
      <point x="85" y="533"/>
      <point x="118" y="568"/>
      <point x="164" y="568" type="curve" smooth="yes"/>
      <point x="203" y="568"/>
      <point x="228" y="545"/>
      <point x="241" y="500" type="curve" smooth="yes"/>
    </contour>
  </outline>
</glyph>
<glyph name="u1035E" format="2">
  <advance width="608"/>
  <unicode hex="1035E"/>
  <outline>
    <contour>
      <point x="156" y="299" type="line"/>
      <point x="247" y="388"/>
      <point x="323" y="456"/>
      <point x="386" y="456" type="curve" smooth="yes"/>
      <point x="431" y="456"/>
      <point x="456" y="421"/>
      <point x="456" y="351" type="curve" smooth="yes"/>
      <point x="456" y="303" type="line"/>
      <point x="545" y="303" type="line"/>
      <point x="545" y="364" type="line" smooth="yes"/>
      <point x="545" y="475"/>
      <point x="484" y="535"/>
      <point x="397" y="535" type="curve" smooth="yes"/>
      <point x="312" y="535"/>
      <point x="227" y="467"/>
      <point x="156" y="391" type="curve"/>
    </contour>
    <contour>
      <point x="91" y="0" type="line"/>
      <point x="180" y="0" type="line"/>
      <point x="180" y="638" type="line"/>
      <point x="91" y="638" type="line"/>
    </contour>
  </outline>
</glyph>
<glyph name="u10363" format="2">
  <advance width="608"/>
  <unicode hex="10363"/>
  <outline>
    <contour>
      <point x="456" y="281" type="line"/>
      <point x="545" y="281" type="line"/>
      <point x="545" y="467" type="line" smooth="yes"/>
      <point x="545" y="584"/>
      <point x="488" y="648"/>
      <point x="403" y="648" type="curve" smooth="yes"/>
      <point x="301" y="648"/>
      <point x="234" y="566"/>
      <point x="166" y="473" type="curve"/>
      <point x="166" y="373" type="line"/>
      <point x="254" y="488"/>
      <point x="333" y="568"/>
      <point x="392" y="568" type="curve" smooth="yes"/>
      <point x="435" y="568"/>
      <point x="456" y="530"/>
      <point x="456" y="454" type="curve" smooth="yes"/>
    </contour>
    <contour>
      <point x="91" y="-187" type="line"/>
      <point x="180" y="-187" type="line"/>
      <point x="180" y="638" type="line"/>
      <point x="91" y="638" type="line"/>
    </contour>
  </outline>
</glyph>
<glyph name="u10367" format="2">
  <advance width="651"/>
  <unicode hex="10367"/>
  <outline>
    <contour>
      <point x="256" y="0" type="line"/>
      <point x="627" y="0" type="line"/>
      <point x="627" y="80" type="line"/>
      <point x="345" y="80" type="line"/>
      <point x="345" y="638" type="line"/>
      <point x="256" y="638" type="line"/>
    </contour>
    <contour>
      <point x="256" y="0" type="line"/>
      <point x="345" y="0" type="line"/>
      <point x="345" y="638" type="line"/>
      <point x="34" y="638" type="line"/>
      <point x="34" y="558" type="line"/>
      <point x="256" y="558" type="line"/>
    </contour>
    <contour>
      <point x="34" y="448" type="line"/>
      <point x="116" y="448" type="line"/>
      <point x="116" y="638" type="line"/>
      <point x="34" y="638" type="line"/>
    </contour>
  </outline>
</glyph>
<glyph name="u10369" format="2">
  <advance width="628"/>
  <unicode hex="10369"/>
  <outline>
    <contour>
      <point x="38" y="0" type="line"/>
      <point x="127" y="0" type="line"/>
      <point x="211" y="392" type="line" smooth="yes"/>
      <point x="231" y="487"/>
      <point x="255" y="559"/>
      <point x="333" y="559" type="curve" smooth="yes"/>
      <point x="448" y="559" type="line"/>
      <point x="448" y="0" type="line"/>
      <point x="537" y="0" type="line"/>
      <point x="537" y="638" type="line"/>
      <point x="343" y="638" type="line" smooth="yes"/>
      <point x="190" y="638"/>
      <point x="145" y="539"/>
      <point x="119" y="409" type="curve" smooth="yes"/>
    </contour>
  </outline>
</glyph>
<glyph name="u1036B" format="2">
  <advance width="824"/>
  <unicode hex="1036B"/>
  <outline>
    <contour>
      <point x="265" y="-14" type="curve" smooth="yes"/>
      <point x="342" y="-14"/>
      <point x="390" y="25"/>
      <point x="412" y="95" type="curve"/>
      <point x="414" y="95" type="line"/>
      <point x="438" y="25"/>
      <point x="485" y="-14"/>
      <point x="562" y="-14" type="curve" smooth="yes"/>
      <point x="697" y="-14"/>
      <point x="771" y="93"/>
      <point x="771" y="234" type="curve" smooth="yes"/>
      <point x="771" y="466"/>
      <point x="590" y="649"/>
      <point x="142" y="723" type="curve"/>
      <point x="124" y="656" type="line"/>
      <point x="522" y="593"/>
      <point x="681" y="443"/>
      <point x="681" y="234" type="curve" smooth="yes"/>
      <point x="681" y="127"/>
      <point x="632" y="59"/>
      <point x="555" y="59" type="curve" smooth="yes"/>
      <point x="493" y="59"/>
      <point x="459" y="94"/>
      <point x="459" y="213" type="curve" smooth="yes"/>
      <point x="459" y="375" type="line"/>
      <point x="370" y="375" type="line"/>
      <point x="370" y="213" type="line" smooth="yes"/>
      <point x="370" y="96"/>
      <point x="340" y="59"/>
      <point x="271" y="59" type="curve" smooth="yes"/>
      <point x="193" y="59"/>
      <point x="142" y="127"/>
      <point x="142" y="234" type="curve" smooth="yes"/>
      <point x="142" y="455"/>
      <point x="334" y="606"/>
      <point x="700" y="656" type="curve"/>
      <point x="682" y="723" type="line"/>
      <point x="280" y="670"/>
      <point x="53" y="482"/>
      <point x="53" y="234" type="curve" smooth="yes"/>
      <point x="53" y="94"/>
      <point x="128" y="-14"/>
    </contour>
  </outline>
</glyph>
<glyph name="u1036F" format="2">
  <advance width="661"/>
  <unicode hex="1036F"/>
  <outline>
    <contour>
      <point x="256" y="0" type="line"/>
      <point x="587" y="0" type="line"/>
      <point x="587" y="80" type="line"/>
      <point x="345" y="80" type="line"/>
      <point x="345" y="638" type="line"/>
      <point x="256" y="638" type="line"/>
    </contour>
    <contour>
      <point x="256" y="0" type="line"/>
      <point x="345" y="0" type="line"/>
      <point x="345" y="638" type="line"/>
      <point x="34" y="638" type="line"/>
      <point x="34" y="558" type="line"/>
      <point x="256" y="558" type="line"/>
    </contour>
    <contour>
      <point x="34" y="458" type="line"/>
      <point x="116" y="458" type="line"/>
      <point x="116" y="638" type="line"/>
      <point x="34" y="638" type="line"/>
    </contour>
    <contour>
      <point x="545" y="0" type="line"/>
      <point x="627" y="0" type="line"/>
      <point x="627" y="180" type="line"/>
      <point x="545" y="180" type="line"/>
    </contour>
  </outline>
</glyph>
<glyph name="u10371" format="2">
  <advance width="632"/>
  <unicode hex="10371"/>
  <outline>
    <contour>
      <point x="231" y="0" type="line"/>
      <point x="385" y="0" type="line" smooth="yes"/>
      <point x="532" y="0"/>
      <point x="591" y="84"/>
      <point x="591" y="194" type="curve" smooth="yes"/>
      <point x="591" y="311"/>
      <point x="525" y="376"/>
      <point x="385" y="376" type="curve" smooth="yes"/>
      <point x="318" y="376" type="line"/>
      <point x="318" y="714" type="line"/>
      <point x="231" y="714" type="line"/>
    </contour>
    <contour>
      <point x="318" y="71" type="line"/>
      <point x="318" y="302" type="line"/>
      <point x="382" y="302" type="line" smooth="yes"/>
      <point x="464" y="302"/>
      <point x="505" y="271"/>
      <point x="505" y="189" type="curve" smooth="yes"/>
      <point x="505" y="109"/>
      <point x="458" y="71"/>
      <point x="385" y="71" type="curve" smooth="yes"/>
    </contour>
    <contour>
      <point x="34" y="534" type="line"/>
      <point x="116" y="534" type="line"/>
      <point x="116" y="714" type="line"/>
      <point x="34" y="714" type="line"/>
    </contour>
    <contour>
      <point x="34" y="634" type="line"/>
      <point x="276" y="634" type="line"/>
      <point x="276" y="714" type="line"/>
      <point x="34" y="714" type="line"/>
    </contour>
    <contour>
      <point x="444" y="534" type="line"/>
      <point x="526" y="534" type="line"/>
      <point x="526" y="714" type="line"/>
      <point x="444" y="714" type="line"/>
    </contour>
    <contour>
      <point x="289" y="634" type="line"/>
      <point x="526" y="634" type="line"/>
      <point x="526" y="714" type="line"/>
      <point x="289" y="714" type="line"/>
    </contour>
  </outline>
</glyph>
<glyph name="u10375" format="2">
  <advance width="558"/>
  <unicode hex="10375"/>
  <outline>
    <contour>
      <point x="234" y="0" type="line"/>
      <point x="324" y="0" type="line"/>
      <point x="558" y="638" type="line"/>
      <point x="464" y="638" type="line"/>
      <point x="334" y="260" type="line" smooth="yes"/>
      <point x="314" y="202"/>
      <point x="293" y="140"/>
      <point x="280" y="94" type="curve"/>
      <point x="278" y="94" type="line"/>
      <point x="264" y="140"/>
      <point x="244" y="201"/>
      <point x="224" y="258" type="curve" smooth="yes"/>
      <point x="93" y="638" type="line"/>
      <point x="0" y="638" type="line"/>
    </contour>
    <contour>
      <point x="207" y="285" type="line"/>
      <point x="279" y="377" type="line"/>
      <point x="351" y="285" type="line"/>
      <point x="413" y="323" type="line"/>
      <point x="310" y="456" type="line"/>
      <point x="248" y="456" type="line"/>
      <point x="145" y="323" type="line"/>
    </contour>
  </outline>
</glyph>
<glyph name="u10376" format="2">
  <unicode hex="10376"/>
  <outline>
    <contour>
      <point x="-102" y="277" type="line"/>
      <point x="-21" y="324"/>
      <point x="65" y="357"/>
      <point x="161" y="383" type="curve"/>
      <point x="131" y="440" type="line"/>
      <point x="78" y="426"/>
      <point x="20" y="406"/>
      <point x="-24" y="381" type="curve"/>
      <point x="138" y="578" type="line"/>
      <point x="138" y="638" type="line"/>
      <point x="-103" y="638" type="line"/>
      <point x="-103" y="577" type="line"/>
      <point x="47" y="577" type="line"/>
      <point x="-159" y="324" type="line"/>
    </contour>
    <contour>
      <point x="-147" y="519" type="line"/>
      <point x="-73" y="519" type="line"/>
      <point x="-73" y="638" type="line"/>
      <point x="-147" y="638" type="line"/>
    </contour>
  </outline>
</glyph>
<glyph name="u10378" format="2">
  <unicode hex="10378"/>
  <outline>
    <contour>
      <point x="62" y="287" type="line"/>
      <point x="140" y="287" type="line"/>
      <point x="140" y="638" type="line"/>
      <point x="-62" y="638" type="line"/>
      <point x="-62" y="574" type="line"/>
      <point x="62" y="574" type="line"/>
    </contour>
    <contour>
      <point x="-140" y="287" type="line"/>
      <point x="62" y="287" type="line"/>
      <point x="62" y="351" type="line"/>
      <point x="-62" y="351" type="line"/>
      <point x="-62" y="638" type="line"/>
      <point x="-140" y="638" type="line"/>
    </contour>
  </outline>
</glyph>
